# xmcd
#
# Track frame offsets: 
#        150
#        14525
#        33227
#        55022
#        68237
#        90175
#        109427
#        124652
#        140157
#        154317
#        181225
#        197920
#        210620
#        223265
#        235782
#        248480
#        266825
#        279275
#        301495
#        312980
#
# Disc length: 4796 seconds
#
# Revision: 8
# Processed by: cddbd v1.5.2PL0 Copyright (c) Steve Scherf et al.
# Submitted via: ExactAudioCopy v0.99pb5
#
DISCID=2512ba14
DTITLE=Various Artist - Millennium New Blues Party
DYEAR=2000
DGENRE=Blues
TTITLE0=Eric Clapton - Hoochie Coochie Man
TTITLE1=Robert Cray Band - Smoking Gun
TTITLE2=Susan Tedeschi - It Hurt So Bad
TTITLE3=Muddy Waters - Manish Boy
TTITLE4=George Thorogood And The Destroyers - Bad To The Bone
TTITLE5=Jonny Lang - Good Morning Little Schoolgirl
TTITLE6=Fabulous Thunderbirds - Tuff Enuff
TTITLE7=Bonnie Raitt - Runaway
TTITLE8=Howlin' Wolf - Smoke Stack Lightning
TTITLE9=Kenny Wayne Shepherd - Born With A Broken Heart
TTITLE10=Allman Brothers Band - Ain't Wastin' Time No More
TTITLE11=Etta James - Something's Got A Hold On Me
TTITLE12=Albert King - Born Under A Bad Sign
TTITLE13=Johnny Winter - Johnny B. Goode
TTITLE14=Jimmy Reed - Big Boss Man
TTITLE15=B.B. King - The Thrill Is Gone
TTITLE16=Elmore James - Dust My Broom
TTITLE17=Koko Taylor - Wang Dang Doodle
TTITLE18=John Lee Hooker - Boom Boom
TTITLE19=Stevie Ray Vaughan And Double Trouble - Flood Down In Texas
EXTD=
EXTT0=
EXTT1=
EXTT2=
EXTT3=
EXTT4=
EXTT5=
EXTT6=
EXTT7=
EXTT8=
EXTT9=
EXTT10=
EXTT11=
EXTT12=
EXTT13=
EXTT14=
EXTT15=
EXTT16=
EXTT17=
EXTT18=
EXTT19=
PLAYORDER=
